<svg xmlns="http://www.w3.org/2000/svg" version="1.1" viewBox="-5 -10 110 135"><path d="m44.082 55.781-31.219 9.8555c0-2.5625-0.023437-5.0039 0.03125-7.4414 0.007813-0.28125 0.40234-0.63281 0.69922-0.82031 9.875-6.2539 19.758-12.492 29.648-18.719 0.62109-0.30859 0.99219-0.96875 0.92969-1.6602-0.039063-6.6875-0.042969-13.375-0.011719-20.062-0.066406-1.6914 0.61328-3.3242 1.8555-4.4766 1.2422-1.1484 2.9258-1.6953 4.6055-1.4961 3.0977 0.31641 5.4023 3.0039 5.2539 6.1133 0.019531 6.625 0.011719 13.254-0.015625 19.879-0.0625 0.71875 0.32031 1.4062 0.96484 1.7383 9.8711 6.1992 19.734 12.414 29.586 18.641h0.003906c0.48828 0.24609 0.77734 0.76562 0.73047 1.3125-0.039062 2.2852-0.015625 4.5703-0.015625 6.9766l-31.246-9.8594v1.1211c0 6.2891 0.011719 12.582-0.015624 18.871v0.003906c-0.074219 0.60156 0.25781 1.1836 0.82031 1.4219 3.4062 1.8438 6.7734 3.7578 10.176 5.6172 0.50781 0.20312 0.82031 0.72656 0.76172 1.2734-0.050781 1.6133-0.015625 3.2305-0.015625 4.9922-1.3242-0.28125-2.5586-0.53906-3.7891-0.8125-4.4062-0.97656-8.8125-1.9609-13.219-2.9258v0.003906c-0.38281-0.082031-0.77734-0.082031-1.1562 0-5.4531 1.1914-10.902 2.3945-16.348 3.6094-0.17578 0.039062-0.35547 0.054688-0.66016 0.097656 0-1.8906-0.023438-3.7422 0.03125-5.5898 0.007812-0.21875 0.41406-0.47656 0.6875-0.625 3.4336-1.9219 6.875-3.832 10.32-5.7305 0.43359-0.15625 0.71094-0.57422 0.69141-1.0352-0.027344-6.5352-0.015625-13.07-0.019531-19.605 0-0.17578-0.03125-0.35156-0.066407-0.66797z"/></svg>